<?xml version="1.0" encoding="iso-8859-1"?>
<!-- Generator: Adobe Illustrator 19.0.0, SVG Export Plug-In . SVG Version: 6.00 Build 0)  -->
<svg version="1.1" id="Capa_1" xmlns="http://www.w3.org/2000/svg" xmlns:xlink="http://www.w3.org/1999/xlink" x="0px" y="0px"
	 viewBox="0 0 512 512" style="enable-background:new 0 0 512 512;" xml:space="preserve">
<rect x="7.604" y="395.517" style="fill:#7EB129;" width="496.792" height="108.595"/>
<g>
	<circle style="fill:#515B65;" cx="376.264" cy="318.687" r="20.058"/>
	<circle style="fill:#515B65;" cx="203.908" cy="314.561" r="20.058"/>
</g>
<polygon style="fill:#008AC1;" points="177.112,109.781 165.742,65.35 215.614,80.473 257.592,127.785 231.945,148.037 "/>
<path style="fill:#E3E8EC;" d="M494.291,267.452c-3.661,12.074-14.989,21.346-29.066,20.905
	c-38.536-1.23-76.822-6.772-114.069-16.769c-18.256-4.893-39.36-11.407-64.147-20.624l-108.233-47.747
	c-26.409-13.206-55.492-28.746-87.605-47.083l-37.016-23.651c-8.519-7.687-13.004-19.067-11.808-30.706l9.611-93.885l35.613,10.8
	l6.849,38.029c3.932,21.824,20.559,39.169,42.202,44.01l295.29,66.038c20.597,4.597,37.535,19.204,45.133,38.892l16.501,42.802
	C496.037,254.921,496.088,261.524,494.291,267.452z"/>
<path style="fill:#D5D8DB;" d="M494.291,267.452c-3.661,12.074-14.989,21.346-29.066,20.905
	c-38.536-1.23-76.822-6.772-114.069-16.769c-18.256-4.893-39.36-11.407-64.147-20.624l-108.233-47.747
	c-26.409-13.206-55.492-28.746-87.605-47.083l-37.016-23.651c-8.519-7.687-13.004-19.067-11.808-30.706
	c124.722,97.288,444.586,190.486,451.199,146.684C496.037,254.921,496.088,261.524,494.291,267.452z"/>
<g>
	<polygon style="fill:#008AC1;" points="188.937,194.098 323.994,241.275 153.297,285.976 103.428,270.854 	"/>
	<polygon style="fill:#008AC1;" points="62.729,126.287 120.282,146.852 42.771,171.579 12.699,162.46 	"/>
</g>
<rect x="7.604" y="421.117" style="fill:#C3C3CD;" width="496.792" height="57.395"/>
<path d="M10.704,169.8l29.86,9.055c0.719,0.218,1.463,0.327,2.206,0.327c0.78,0,1.559-0.12,2.311-0.36l45.233-14.43
	c7.719,4.392,15.399,8.702,22.928,12.864c3.687,2.038,8.323,0.687,10.346-3.008l0,0c2.01-3.673,0.676-8.277-2.989-10.303
	c-3.48-1.923-6.993-3.879-10.525-5.858l12.243-3.906c2.806-0.895,5.02-3.227,5.474-6.139c0.572-3.67-1.551-7.138-4.953-8.353
	l-57.554-20.564c-2.359-0.844-4.983-0.469-7.014,0.999l-3.047,2.203c-4.085-5.665-6.041-12.715-5.315-19.777l8.672-84.705
	l22.329,6.772l6.023,33.45c4.486,24.901,23.338,44.56,48.027,50.082l295.292,66.038c18.154,4.051,32.993,16.839,39.695,34.206
	l2.396,6.215l-17.489-5.304c-3.984-1.209-8.391,0.809-9.718,4.755c-1.373,4.084,0.906,8.465,4.999,9.706l29.145,8.838l7.167,18.591
	c1.766,4.582,1.961,9.44,0.564,14.048c-2.863,9.441-11.729,15.808-21.547,15.511c-38.273-1.222-76.069-6.778-112.343-16.515
	c-13.291-3.562-26.612-7.597-40.271-12.191l12.783-3.348c2.938-0.77,5.316-3.099,5.842-6.09c0.657-3.735-1.497-7.302-4.979-8.518
	l-135.055-47.177c-2.618-0.912-5.524-0.333-7.587,1.521l-6.295,5.65c-8.218-4.146-16.628-8.479-25.139-12.96
	c-3.702-1.949-8.284-0.538-10.251,3.154v0.001c-1.981,3.721-0.554,8.344,3.176,10.309c6.766,3.564,13.472,7.037,20.07,10.397
	l-67.07,60.211c-2.043,1.834-2.939,4.626-2.344,7.307c0.595,2.681,2.589,4.832,5.217,5.628l49.87,15.122
	c0.719,0.218,1.462,0.327,2.206,0.327c0.647,0,1.295-0.083,1.926-0.248l41.084-10.759v5.395
	c-12.393,3.549-21.258,15.537-19.926,29.325c1.289,13.341,12.251,23.962,25.623,24.863c16.111,1.086,29.567-11.714,29.567-27.597
	c0-12.614-8.491-23.276-20.056-26.59v-9.378l75.112-19.67c21.621,7.97,42.118,14.533,62.559,20.011
	c6.312,1.694,12.673,3.255,19.07,4.703l0.225,8.507c-12.608,3.703-21.512,16.155-19.632,30.307
	c1.652,12.434,11.778,22.325,24.243,23.718c16.665,1.861,30.829-11.188,30.829-27.485c0-12.677-8.576-23.384-20.23-26.639
	l-0.137-5.191c26.667,5.17,53.931,8.226,81.433,9.104c0.388,0.012,0.773,0.018,1.159,0.018
	c16.218-0.001,30.681-10.682,35.422-26.317c2.391-7.883,2.07-16.159-0.927-23.932l-16.502-42.805
	c-8.538-22.124-27.442-38.414-50.567-43.575l-171.927-38.449l-40.344-45.471c-0.932-1.05-2.137-1.823-3.481-2.23l-49.873-15.123
	c-2.627-0.798-5.48-0.115-7.464,1.783c-1.984,1.899-2.789,4.719-2.11,7.379l8.297,32.422l-28.39-6.349
	c-18.701-4.182-32.98-19.074-36.378-37.936l-6.849-38.029c-0.506-2.81-2.545-5.101-5.277-5.929l-35.615-10.8
	c-2.175-0.659-4.528-0.312-6.42,0.947c-1.891,1.258-3.121,3.296-3.352,5.556l-9.611,93.883c-1.109,10.795,1.882,21.572,8.127,30.233
	L8.243,156.298c-2.807,2.03-3.945,5.758-2.558,9.106C6.575,167.554,8.478,169.125,10.704,169.8z M216.364,314.557
	c0,6.867-5.586,12.454-12.453,12.454s-12.454-5.586-12.454-12.454c0-6.867,5.586-12.453,12.454-12.453
	C210.778,302.104,216.364,307.691,216.364,314.557z M153.449,278.076l-34.895-10.582l72.119-64.737l107.282,37.475L153.449,278.076z
	 M388.712,318.683c0,6.867-5.586,12.454-12.454,12.454c-6.867,0-12.453-5.586-12.453-12.454s5.586-12.454,12.453-12.454
	C383.126,306.229,388.712,311.815,388.712,318.683z M176.455,76.544l34.895,10.582l24.93,28.098l-52.958-11.844L176.455,76.544z
	 M63.94,134.795l32.602,11.649l-53.828,17.172l-13.13-3.981L63.94,134.795z"/>
<path d="M144.924,146.461c1.707,2.591,4.97,3.87,7.988,3.193c3.234-0.726,5.669-3.557,5.909-6.861
	c0.496-6.814-7.916-10.75-12.847-6.037C143.336,139.279,142.927,143.427,144.924,146.461z"/>
<path d="M175.756,157.279c3.255,0,6.276-2.119,7.269-5.404c1.217-4.015-1.044-8.263-5.069-9.48c-4.015-1.227-8.263,1.044-9.48,5.069
	c-1.217,4.015,1.044,8.263,5.069,9.48C174.276,157.168,175.026,157.279,175.756,157.279z"/>
<path d="M200.261,164.7c3.265,0,6.276-2.109,7.269-5.394c1.227-4.025-1.044-8.263-5.069-9.48c-4.015-1.227-8.263,1.044-9.48,5.069
	c-1.217,4.015,1.054,8.263,5.069,9.48C198.781,164.599,199.531,164.7,200.261,164.7z"/>
<path d="M273.786,186.995c3.254,0,6.276-2.109,7.269-5.394c1.217-4.025-1.054-8.263-5.069-9.49c-4.015-1.217-8.263,1.054-9.48,5.079
	c-1.227,4.015,1.044,8.263,5.069,9.48C272.306,186.894,273.046,186.995,273.786,186.995z"/>
<path d="M347.301,209.289c3.265,0,6.286-2.109,7.28-5.394c1.217-4.025-1.054-8.263-5.069-9.49c-4.025-1.217-8.273,1.054-9.49,5.079
	c-1.217,4.015,1.054,8.263,5.069,9.48C345.831,209.189,346.571,209.289,347.301,209.289z"/>
<path d="M322.796,201.859c3.265,0,6.276-2.109,7.269-5.394c1.227-4.025-1.044-8.263-5.069-9.49c-4.015-1.217-8.263,1.054-9.48,5.069
	c-1.217,4.025,1.054,8.273,5.069,9.49C321.326,201.757,322.066,201.859,322.796,201.859z"/>
<path d="M371.806,216.721c3.265,0,6.286-2.109,7.28-5.394c1.217-4.025-1.054-8.263-5.069-9.49c-4.025-1.217-8.263,1.054-9.49,5.079
	c-1.217,4.015,1.054,8.263,5.079,9.48C370.336,216.619,371.076,216.721,371.806,216.721z"/>
<path d="M224.766,172.132c3.265,0,6.276-2.109,7.28-5.394c1.217-4.025-1.054-8.263-5.069-9.48c-4.025-1.227-8.273,1.044-9.49,5.069
	c-1.217,4.015,1.054,8.263,5.069,9.48C223.296,172.03,224.036,172.132,224.766,172.132z"/>
<path d="M298.291,194.427c3.265,0,6.276-2.109,7.269-5.394c1.217-4.025-1.054-8.263-5.069-9.49c-4.015-1.217-8.263,1.054-9.48,5.069
	c-1.217,4.025,1.044,8.273,5.069,9.49C296.811,194.326,297.561,194.427,298.291,194.427z"/>
<path d="M249.271,179.564c3.265,0,6.286-2.109,7.28-5.394c1.217-4.025-1.054-8.263-5.069-9.49c-4.025-1.217-8.263,1.054-9.49,5.079
	c-1.217,4.015,1.054,8.263,5.079,9.48C247.801,179.461,248.541,179.564,249.271,179.564z"/>
<path d="M389.995,220.767c1.715,2.668,5.119,3.917,8.17,3.155c3.084-0.77,5.402-3.467,5.722-6.628
	c0.702-6.899-7.867-10.977-12.842-6.223C388.428,213.575,387.965,217.76,389.995,220.767z"/>
<path d="M504.396,387.911H7.604c-4.199,0-7.604,3.405-7.604,7.604v25.597v57.399v25.597c0,4.199,3.405,7.604,7.604,7.604h496.792
	c4.199,0,7.604-3.405,7.604-7.604v-25.597v-57.399v-25.597C512,391.316,508.595,387.911,504.396,387.911z M496.792,403.119v10.389
	H15.208v-10.389H496.792z M15.208,496.504v-10.389h404.535c4.199,0,7.604-3.405,7.604-7.604l0,0c0-4.199-3.405-7.604-7.604-7.604
	H15.208v-42.191h481.584v42.191h-41.563c-4.199,0-7.604,3.405-7.604,7.604l0,0c0,4.199,3.405,7.604,7.604,7.604h41.563v10.389
	H15.208z"/>
<g>
</g>
<g>
</g>
<g>
</g>
<g>
</g>
<g>
</g>
<g>
</g>
<g>
</g>
<g>
</g>
<g>
</g>
<g>
</g>
<g>
</g>
<g>
</g>
<g>
</g>
<g>
</g>
<g>
</g>
</svg>
