<?xml version="1.0" encoding="iso-8859-1"?>
<!-- Generator: Adobe Illustrator 19.0.0, SVG Export Plug-In . SVG Version: 6.00 Build 0)  -->
<svg version="1.1" id="Capa_1" xmlns="http://www.w3.org/2000/svg" xmlns:xlink="http://www.w3.org/1999/xlink" x="0px" y="0px"
	 viewBox="0 0 512 512" style="enable-background:new 0 0 512 512;" xml:space="preserve">
<polygon style="fill:#008AC1;" points="167.161,159.086 127.936,135.845 173.624,111.418 236.392,115.168 232.599,147.433 "/>
<path style="fill:#E3E8EC;" d="M500.962,46.958c5.913,11.061,4.468,25.542-5.737,35.127c-27.954,26.225-58.763,49.243-91.974,68.397
	c-16.273,9.394-35.687,19.65-59.591,30.594l-109.647,42.52c-27.848,9.282-59.215,18.801-94.681,28.486l-42.647,9.395
	c-11.392,0.586-22.544-4.263-29.886-13.284L7.559,175.44l32.626-17.443l31.548,21.918c18.105,12.578,41.986,13.082,60.603,1.271
	L386.336,20.03c17.71-11.247,39.885-12.887,59.066-4.387l41.687,18.489C493.382,36.923,498.059,41.527,500.962,46.958z"/>
<path style="fill:#D5D8DB;" d="M500.962,46.958c5.913,11.061,4.468,25.542-5.737,35.127c-27.954,26.225-58.763,49.243-91.974,68.397
	c-16.273,9.394-35.687,19.65-59.591,30.594l-109.647,42.52c-27.848,9.282-59.215,18.801-94.681,28.486l-42.647,9.395
	c-11.392,0.586-22.544-4.263-29.886-13.284c156.066-19.285,446.432-178.621,420.29-214.061
	C493.382,36.923,498.059,41.527,500.962,46.958z"/>
<g>
	<polygon style="fill:#008AC1;" points="234.745,210.044 362.848,148.268 274.278,299.685 228.593,324.111 	"/>
	<polygon style="fill:#008AC1;" points="98.357,251.096 153.272,225.094 116.166,296.963 88.616,311.693 	"/>
</g>
<rect x="10.561" y="393.803" style="fill:#7EB129;" width="493.88" height="107.958"/>
<rect x="10.561" y="419.253" style="fill:#C3C3CD;" width="493.88" height="57.058"/>
<path d="M87.901,268.516l-6.748,41.978c-0.457,2.836,0.735,5.686,3.073,7.354c1.306,0.931,2.845,1.405,4.39,1.405
	c1.221,0,2.445-0.295,3.564-0.893l27.55-14.73c1.351-0.723,2.45-1.837,3.153-3.199l21.652-41.937
	c28.743-7.897,56.038-16.037,81.335-24.259l-4.827,89.47c-0.147,2.725,1.186,5.319,3.489,6.784c1.235,0.786,2.646,1.182,4.06,1.182
	c1.223,0,2.447-0.296,3.564-0.893l45.687-24.426c1.232-0.658,2.256-1.645,2.961-2.85l68.182-116.561
	c20.798-9.594,39.821-19.389,58.043-29.909c33.346-19.233,64.76-42.594,93.371-69.435c12.096-11.36,15.069-29.537,7.229-44.201
	c-3.861-7.223-9.905-12.815-17.475-16.172L448.464,8.731c-21.552-9.551-46.296-7.713-66.179,4.915l-50.939,32.319
	c-3.526,2.237-4.57,6.907-2.333,10.433l0,0c2.237,3.526,6.907,4.57,10.433,2.333l50.942-32.321
	c15.61-9.914,35.031-11.354,51.949-3.858l6.053,2.684l-16.071,8.592c-3.492,1.867-5.184,6.1-3.628,9.741
	c1.252,2.927,4.058,4.61,6.968,4.61c1.202,0,2.423-0.288,3.558-0.894l26.701-14.275l18.107,8.031
	c4.462,1.979,8.014,5.256,10.272,9.479c4.624,8.649,2.878,19.362-4.242,26.051c-27.762,26.046-58.237,48.71-90.581,67.363
	c-11.848,6.84-24.049,13.369-36.879,19.739l6.634-11.342c1.524-2.605,1.556-5.913-0.175-8.385c-2.164-3.087-6.186-4.081-9.488-2.488
	l-128.103,61.775c-2.482,1.197-4.116,3.65-4.264,6.402l-0.454,8.404c-22.682,7.471-47.071,14.888-72.746,22.126l5.858-11.346
	c1.345-2.603,1.262-5.8-0.465-8.167c-2.176-2.983-6.108-3.927-9.353-2.391l-54.914,26.002c-2.252,1.066-3.833,3.173-4.228,5.632
	l-0.594,3.695c-6.854-1.11-13.183-4.696-17.638-10.172l-53.448-65.64l20.457-10.937l27.749,19.279
	c20.659,14.351,47.729,14.919,68.966,1.445L311.148,76.686c3.526-2.237,4.57-6.907,2.333-10.433l0,0
	c-2.237-3.526-6.907-4.57-10.433-2.333L234.4,107.475l-60.325-3.603c-1.393-0.082-2.784,0.222-4.015,0.88l-45.493,24.322
	c-1.919,1.026-3.414,2.765-3.951,4.873c-0.851,3.34,0.626,6.719,3.466,8.402l28.624,16.959l-24.42,15.494
	c-16.086,10.204-36.592,9.775-52.24-1.096l-31.548-21.918c-2.331-1.621-5.373-1.797-7.877-0.459L3.995,168.772
	c-1.992,1.065-3.403,2.964-3.847,5.178c-0.444,2.214,0.124,4.51,1.549,6.262l59.239,72.753
	C67.746,261.334,77.421,266.817,87.901,268.516z M242.053,214.913l101.758-49.071l-74.98,128.184l-31.968,17.092L242.053,214.913z
	 M105.189,256.225l31.106-14.73l-25.767,49.91L98.5,297.836L105.189,256.225z M143.337,136.183l31.969-17.092l37.277,2.226
	L167.03,150.22L143.337,136.183z"/>
<path d="M178.081,195.886c-1.818-2.66-5.183-3.958-8.306-3.082c-2.989,0.839-5.19,3.452-5.505,6.539
	c-0.314,3.081,1.371,6.099,4.125,7.487c2.973,1.498,6.68,0.833,8.945-1.614C179.685,202.682,179.978,198.765,178.081,195.886z"/>
<path d="M302.942,121.391c-3.689,1.976-5.08,6.551-3.104,10.24c1.361,2.54,3.971,3.991,6.672,3.991c1.199,0,2.419-0.282,3.558-0.897
	c3.679-1.965,5.07-6.541,3.094-10.23C311.196,120.817,306.62,119.426,302.942,121.391z"/>
<path d="M280.485,133.406c-3.679,1.965-5.07,6.541-3.104,10.22c1.361,2.55,3.981,4.001,6.672,4.001c1.21,0,2.429-0.282,3.558-0.897
	c3.689-1.965,5.07-6.541,3.104-10.23C288.75,132.821,284.164,131.43,280.485,133.406z"/>
<path d="M351.412,111.614c1.199,0,2.419-0.282,3.558-0.887c3.679-1.976,5.07-6.551,3.104-10.24c-1.975-3.679-6.551-5.07-10.23-3.094
	c-3.689,1.965-5.08,6.541-3.104,10.23C346.101,110.163,348.711,111.614,351.412,111.614z"/>
<path d="M373.859,99.61c1.21,0,2.429-0.282,3.558-0.897c3.689-1.965,5.07-6.541,3.104-10.22c-1.965-3.689-6.551-5.08-10.23-3.104
	c-3.679,1.965-5.07,6.541-3.104,10.23C368.547,98.159,371.168,99.61,373.859,99.61z"/>
<path d="M328.956,123.619c1.21,0,2.429-0.282,3.558-0.897c3.689-1.965,5.07-6.541,3.104-10.23c-1.965-3.679-6.551-5.07-10.23-3.094
	c-3.679,1.965-5.07,6.541-3.104,10.23C323.644,122.167,326.265,123.619,328.956,123.619z"/>
<path d="M213.126,169.408c-3.679,1.976-5.07,6.551-3.094,10.23c1.361,2.55,3.971,4.001,6.672,4.001c1.199,0,2.419-0.292,3.558-0.897
	c3.679-1.965,5.07-6.551,3.094-10.23C221.391,168.834,216.815,167.443,213.126,169.408z"/>
<path d="M258.039,145.4c-3.689,1.976-5.08,6.551-3.104,10.24c1.361,2.54,3.971,3.991,6.672,3.991c1.199,0,2.419-0.292,3.558-0.897
	c3.679-1.965,5.07-6.551,3.094-10.23C266.294,144.825,261.718,143.434,258.039,145.4z"/>
<path d="M190.68,181.413c-3.679,1.965-5.07,6.551-3.104,10.23c1.361,2.55,3.971,4.001,6.672,4.001c1.21,0,2.429-0.292,3.558-0.897
	c3.689-1.965,5.07-6.551,3.104-10.23S194.359,179.447,190.68,181.413z"/>
<path d="M235.582,157.404c-3.679,1.976-5.07,6.551-3.104,10.23c1.361,2.55,3.971,4.001,6.672,4.001c1.21,0,2.429-0.292,3.558-0.897
	c3.689-1.965,5.07-6.551,3.104-10.23C243.847,156.83,239.261,155.439,235.582,157.404z"/>
<path d="M390.026,84.249c1.697,2.578,4.942,3.845,7.941,3.174c3.215-0.72,5.636-3.538,5.874-6.821
	c0.49-6.772-7.868-10.686-12.77-6.001C388.446,77.109,388.04,81.233,390.026,84.249z"/>
<path d="M504.44,386.246H10.561c-4.175,0-7.559,3.385-7.559,7.559v25.447v57.062v25.447c0,4.175,3.385,7.559,7.559,7.559h493.88
	c4.175,0,7.559-3.385,7.559-7.559v-25.447v-57.062v-25.447C512,389.63,508.615,386.246,504.44,386.246z M496.881,401.365v10.328
	H361.33c-4.175,0-7.559,3.385-7.559,7.559l0,0c0,4.175,3.385,7.559,7.559,7.559h135.551v41.943H18.12v-41.944h307.932
	c4.175,0,7.559-3.385,7.559-7.559l0,0c0-4.175-3.385-7.559-7.559-7.559H18.12v-10.328L496.881,401.365L496.881,401.365z
	 M18.12,494.201v-10.328h478.761v10.328H18.12z"/>
<g>
</g>
<g>
</g>
<g>
</g>
<g>
</g>
<g>
</g>
<g>
</g>
<g>
</g>
<g>
</g>
<g>
</g>
<g>
</g>
<g>
</g>
<g>
</g>
<g>
</g>
<g>
</g>
<g>
</g>
</svg>
